<svg xmlns="http://www.w3.org/2000/svg" version="1.1" xmlns:xlink="http://www.w3.org/1999/xlink" xmlns:svgjs="http://svgjs.dev/svgjs" width="128" height="128" viewBox="0 0 128 128"><g transform="matrix(0.8046875,0,0,0.8046875,12.221578124999994,12.221578124999994)"><svg viewBox="0 0 96 96" data-background-color="#ffe9d1" preserveAspectRatio="xMidYMid meet" height="128" width="128" xmlns="http://www.w3.org/2000/svg" xmlns:xlink="http://www.w3.org/1999/xlink"><g id="tight-bounds" transform="matrix(1,0,0,1,0.25950000000000273,0.25950000000000273)"><svg viewBox="0 0 95.481 95.481" height="95.481" width="95.481"><g><svg viewBox="0 0 95.481 95.481" height="95.481" width="95.481"><g><svg viewBox="0 0 95.481 95.481" height="95.481" width="95.481"><g id="textblocktransform"><svg viewBox="0 0 95.481 95.481" height="95.481" width="95.481" id="textblock"><g><svg viewBox="0 0 95.481 95.481" height="95.481" width="95.481"><g><svg viewBox="0 0 95.481 95.481" height="95.481" width="95.481"><g><svg xmlns="http://www.w3.org/2000/svg" data-name="Layer 1" viewBox="0 0 128 128" x="0" y="0" height="95.481" width="95.481" class="icon-icon-0" data-fill-palette-color="accent" id="icon-0"><circle cx="64" cy="15" r="15" fill="#fc6f2f" data-fill-palette-color="accent"></circle><path d="M126 10H121V2A2 2 0 0 0 117 2V10H113V2A2 2 0 0 0 109 2V10H105V2A2 2 0 0 0 101 2V10H96A2 2 0 0 0 96 14H126A2 2 0 0 0 126 10" fill="#fc6f2f" data-fill-palette-color="accent"></path><path d="M9 0A2 2 0 0 0 7 2V10H2A2 2 0 0 0 2 14H32A2 2 0 0 0 32 10H27V2A2 2 0 0 0 23 2V10H19V2A2 2 0 0 0 15 2V10H11V2A2 2 0 0 0 9 0" fill="#fc6f2f" data-fill-palette-color="accent"></path><path d="M40 68A2 2 0 0 0 40 72H46A2 2 0 0 0 46 68Z" fill="#fc6f2f" data-fill-palette-color="accent"></path><path d="M80 70A2 2 0 0 0 82 72H88A2 2 0 0 0 88 68H82A2 2 0 0 0 80 70" fill="#fc6f2f" data-fill-palette-color="accent"></path><path d="M106 124V80H124A4 4 0 0 0 128 76V66A4 4 0 0 0 124 62H94V42.18A19.08 19.08 0 0 0 80.84 23.76 19.5 19.5 0 0 1 78.48 27.28C85 28.61 90 34.78 90 42.18V62H84.45A22.3 22.3 0 0 1 82.37 66H124V76H4V66H45.63A22.3 22.3 0 0 1 43.55 62H39.11L46.81 59.2A18 18 0 0 0 82 54 2 2 0 0 0 80 52H63.56C63.56 51.93 63.64 51.87 63.67 51.79A3.75 3.75 0 0 0 63.67 48.79L61.5 43.46A4 4 0 0 0 61.2 42.89L62.86 38.74A2 2 0 0 0 59.14 37.26L57.63 41A4.3 4.3 0 0 0 56.28 41.24L45.88 45.38A2 2 0 1 0 47.36 49.09L57.7 45H57.77L60 50.18 55 52H48A2 2 0 0 0 46 54C46 54.4 46 54.8 46.07 55.2L38 58.15V42.15C38 34.75 43 28.58 49.52 27.25A19.5 19.5 0 0 1 47.16 23.73 19.08 19.08 0 0 0 34 42.18V62H4A4 4 0 0 0 0 66V76A4 4 0 0 0 4 80H22V124A4 4 0 0 0 26 128H30A4 4 0 0 0 34 124V104H94V124A4 4 0 0 0 98 128H102A4 4 0 0 0 106 124M94 92H34V80H94Z" fill="#fc6f2f" data-fill-palette-color="accent"></path><path d="M79 40A2 2 0 0 0 75.19 39.14C74.95 39.24 74.61 39.35 74.36 39.43 73.1 39.85 70.99 40.55 70.99 42.66A2.94 2.94 0 0 0 72.91 45.33 2.94 2.94 0 0 0 71 48 2 2 0 0 0 74.81 48.86C75.05 48.76 75.39 48.65 75.64 48.57 76.9 48.15 79.01 47.45 79.01 45.34A2.94 2.94 0 0 0 77.09 42.67 2.94 2.94 0 0 0 79 40" fill="#fc6f2f" data-fill-palette-color="accent"></path></svg></g></svg></g></svg></g></svg></g></svg></g><g></g></svg></g><defs></defs></svg><rect width="95.481" height="95.481" fill="none" stroke="none" visibility="hidden"></rect></g></svg></g></svg>